<?xml version="1.0" encoding="utf-8"?>
<!-- Generator: Adobe Illustrator 17.0.0, SVG Export Plug-In . SVG Version: 6.00 Build 0)  -->
<!DOCTYPE svg PUBLIC "-//W3C//DTD SVG 1.1//EN" "http://www.w3.org/Graphics/SVG/1.1/DTD/svg11.dtd">
<svg version="1.1" id="Capa_1" xmlns="http://www.w3.org/2000/svg" xmlns:xlink="http://www.w3.org/1999/xlink" x="0px" y="0px"
	 width="1336px" height="1224px" viewBox="0 0 1336 1224" enable-background="new 0 0 1336 1224" xml:space="preserve">
<path opacity="0.6" fill="#C5E8F0" stroke="#424143" stroke-width="1.7602" stroke-miterlimit="10" d="M422.286,172.966
	c23.987-0.049,47.924,0.493,71.911,1.675c39.945,2.02,79.595,7.979,119.491,10.491c13.594,25.563-27.976,64.326-27.188,91.366
	c0.443,14.727,6.403,28.419,15.564,39.699c-0.936,0.985-1.921,2.02-2.807,3.054c-0.591,0.69,0.345,1.626,0.985,0.985
	c0.887-0.985,1.871-1.872,2.808-2.857c7.24,8.521,16.352,15.564,26.252,20.342c44.378,21.327,121.313,8.324,142.837-41.029
	c11.378-26.154-2.167-46.693-15.86-68.562c-4.334-6.896-11.673-17.83-8.964-26.597c5.418-17.436,25.415-13.397,37.876-13.2
	c22.706,0.295,45.363,0.591,68.02,0.887c23.198,0.345,46.397,0.837,69.645,1.33c-0.049,25.76,0.197,51.52,0.788,77.28
	c0.739,32.114-1.97,68.562,4.63,100.577c-1.133,13.545,9.949,25.711,24.627,28.272c34.576,6.107,55.017-35.315,91.908-13.988
	c-0.099,0.098-0.197,0.148-0.246,0.197c-0.887,0.788,0.394,2.02,1.281,1.281c0.197-0.148,0.345-0.295,0.542-0.493
	c40.29,25.021,34.035,84.964,11.821,120.279c-13.249,21.032-36.448,37.187-60.681,23.839c-12.707-6.994-20.588-21.623-34.97-25.908
	c-21.721-6.502-32.951,12.116-35.315,30.833c-5.467,43.491-2.069,89.889-2.561,133.676c-0.148,14.284-0.246,28.568-0.345,42.802
	c-12.412,0-24.873,0-37.286-0.049c4.482-4.039,8.964-8.176,13.299-12.412c0.739-0.64-0.295-1.626-1.034-1.035
	c-5.221,4.334-10.294,8.866-15.318,13.446c-2.561,0-5.122,0-7.635,0c-14.037,0-28.075-0.049-42.112-0.049
	c16.451-13.791,32.754-27.73,48.909-41.866c0.739-0.64-0.345-1.724-1.083-1.084c-16.993,14.185-33.838,28.469-50.535,42.95
	c-8.029,0-16.057,0-24.135-0.049c-9.851,0-29.356,2.808-42.851-1.034c16.697-15.072,33.247-30.34,49.697-45.658
	c0.887-0.838-0.443-2.167-1.379-1.379c-16.894,15.318-33.69,30.784-50.338,46.397c-8.619-3.103-14.234-9.407-11.919-21.869
	c1.281-6.945,9.161-13.791,12.363-20.293c3.349-6.649,5.615-13.299,6.748-20.638c12.51-12.806,24.824-25.859,37.039-38.96
	c0.738-0.788-0.444-1.97-1.182-1.182c-11.969,12.314-23.839,24.726-35.512,37.335c1.231-11.23-0.443-22.509-4.285-33.148
	c-2.364-6.502-5.467-12.412-9.161-17.781c6.994-7.29,13.939-14.579,20.736-22.017c0.739-0.788-0.443-2.019-1.182-1.182
	c-6.896,7.191-13.693,14.53-20.391,21.918c-27.484-38.615-85.85-47.333-129.144-30.045c-21.721,8.669-41.325,25.169-44.772,49.451
	c-4.581,32.852,24.775,60.632,20.588,92.696c-26.597-0.64-53.195-0.788-79.841-0.739c9.456-11.87,20.342-22.164,32.902-30.981
	c1.084-0.739,0.05-2.561-1.083-1.823c-13.496,8.767-25.218,19.899-34.823,32.803c-20.391,0.049-40.782,0.197-61.223,0.443
	c16.106-17.042,32.951-33.296,50.486-48.86c0.887-0.739-0.394-1.97-1.232-1.232c-18.47,15.614-35.759,32.409-52.111,50.141
	c-9.9,0.099-19.8,0.197-29.7,0.345c-0.049-8.275-0.098-16.549-0.148-24.824c17.485-20.194,36.399-38.32,56.495-56.002
	c0.985-0.887-0.394-2.66-1.429-1.872c-20.391,15.466-38.763,34.034-55.066,53.785c-0.148-18.717-0.295-37.384-0.591-56.1
	c13.496-15.614,27.484-30.735,41.817-45.609c0.886-0.887-0.444-2.217-1.379-1.379c-14.333,13.643-27.78,28.272-40.487,43.491
	c-0.246-17.337-0.64-34.675-1.182-52.013c11.132-10.589,22.263-21.179,33.296-31.867c0.788-0.788-0.443-1.97-1.232-1.232
	c-10.787,10.048-21.524,20.194-32.163,30.341c-0.443-12.511-0.887-25.071-1.477-37.581c3.251-3.004,4.63-8.423,0.936-12.905
	c-4.581-5.566-10.048-8.964-16.155-10.639c10.442-10.442,21.376-20.293,32.754-29.651c0.837-0.689-0.345-1.822-1.182-1.182
	c-11.92,9.358-23.1,19.505-33.591,30.341c-4.974-1.034-10.294-1.034-15.958,0c-20.244,3.694-36.596,19.505-53.589,17.731
	c17.436-16.549,34.626-33.395,51.52-50.436c0.887-0.887-0.444-2.217-1.33-1.379c-17.928,16.845-35.611,33.985-52.997,51.372
	c-6.107-1.379-12.363-5.221-18.913-12.904c-4.137-4.827-7.733-10.344-10.885-16.303c15.466-13.742,30.833-27.632,45.856-41.817
	c0.886-0.788-0.394-2.069-1.281-1.281c-15.367,13.545-30.439,27.484-45.412,41.472c-6.797-13.2-11.23-28.321-12.954-42.654
	c7.88-10.984,16.993-20.884,27.631-29.553c0.887-0.739-0.394-1.97-1.281-1.281c-10.195,7.979-19.16,17.239-26.647,27.582
	c-0.197-2.069-0.443-4.186-0.493-6.255c-1.133-29.306,16.353-66.887,51.372-62.7c24.676,2.906,53.884,54.721,79.89,19.751
	c7.142-9.654,7.979-22.312,7.683-34.183c8.521-13.249,18.52-25.415,29.898-36.448c0.837-0.837-0.443-2.118-1.281-1.281
	c-11.082,10.393-20.539,21.918-28.715,34.527c-0.049-1.675-0.099-3.349-0.197-4.975c-0.443-9.161-0.887-18.372-1.33-27.582
	c8.028-9.998,16.993-18.963,26.843-27.533c0.838-0.739-0.345-2.315-1.281-1.626c-9.703,7.388-18.273,16.303-25.71,26.006
	c-0.739-15.761-1.428-31.473-1.921-47.235c9.801-11.181,20.44-20.884,33.394-28.962c0.837-0.542,0.099-1.822-0.788-1.33
	c-12.363,6.698-23.839,15.86-32.705,26.942c-0.148-3.694-0.246-7.339-0.345-10.984c-0.394-14.087-0.591-28.174-0.739-42.26
	c6.847-7.782,14.234-15.022,22.362-21.918c0.739-0.591-0.296-1.97-1.084-1.379c-7.733,5.812-14.875,12.461-21.278,19.751
	C422.286,196.165,422.236,184.54,422.286,172.966z"/>
</svg>
